Coordinates
version=1
nRows=5
nColumns=63
inDegrees=yes

Units are S.I. units (second, meters, Newtons, ...)
If the header above contains a line with 'inDegrees', this indicates whether rotational values are in degrees (yes) or radians (no).

endheader
time	pelvis_tilt	pelvis_list	pelvis_rotation	pelvis_tx	pelvis_ty	pelvis_tz	hip_flexion_r	hip_adduction_r	hip_rotation_r	knee_angle_r	knee_angle_r_beta	ankle_angle_r	subtalar_angle_r	mtp_angle_r	hip_flexion_l	hip_adduction_l	hip_rotation_l	knee_angle_l	knee_angle_l_beta	ankle_angle_l	subtalar_angle_l	mtp_angle_l	L5_S1_Flex_Ext	L5_S1_Lat_Bending	L5_S1_axial_rotation	L4_L5_Flex_Ext	L4_L5_Lat_Bending	L4_L5_axial_rotation	L3_L4_Flex_Ext	L3_L4_Lat_Bending	L3_L4_axial_rotation	L2_L3_Flex_Ext	L2_L3_Lat_Bending	L2_L3_axial_rotation	L1_L2_Flex_Ext	L1_L2_Lat_Bending	L1_L2_axial_rotation	L1_T12_Flex_Ext	L1_T12_Lat_Bending	L1_T12_axial_rotation	Abs_r3	Abs_r2	Abs_r1	Abs_t1	Abs_t2	neck_flexion	neck_bending	neck_rotation	arm_flex_r	arm_add_r	arm_rot_r	elbow_flex_r	pro_sup_r	wrist_flex_r	wrist_dev_r	arm_flex_l	arm_add_l	arm_rot_l	elbow_flex_l	pro_sup_l	wrist_flex_l	wrist_dev_l
      2.65000000	      1.61328565	     -0.62347921	     95.99321536	      0.01857875	      0.87093077	      0.71522022	      5.73044398	     -0.70748266	     -0.35801519	     17.33409574	      0.30253704	     34.81447455	     -3.78229565	      0.00000000	      0.34379751	      0.65473195	     -0.92383932	      5.95092487	      0.10386323	     33.60627972	      3.16272711	      0.00000000	      0.20728725	     -0.07004580	      1.12248269	      0.38495315	     -0.09316092	      1.19263785	      0.34055222	     -0.17030937	      1.19263785	      0.23690860	     -0.17030937	      0.98217235	      0.19248694	     -0.14283740	      0.91201718	      0.11844393	     -0.10850095	      0.84186201	      1.48063210	     -0.79237215	      6.24291196	      0.00000000	      0.00000000	     19.85126115	     -9.06894170	    -23.72723489	   -174.56248516	    -31.82232298	   -252.58225570	     48.43857411	     58.76623214	     -4.24833105	     -5.72164623	    148.57307675	    -16.75345785	     42.26941357	     54.63825659	     86.31274909	     -5.60965989	      2.48282392
      2.66666667	      1.51706409	     -0.97978074	     96.22791010	      0.01903441	      0.87129204	      0.71553393	      6.06067630	     -0.80861228	     -0.48068598	     17.25420348	      0.30114266	     34.73466248	     -3.89145576	      0.00000000	      0.81439958	      0.72903717	     -1.08995590	      6.12788107	      0.10695170	     33.37136026	      3.55698282	      0.00000000	      0.21815151	     -0.07192953	      0.95242562	      0.40512918	     -0.09566627	      1.01195222	      0.35840112	     -0.17488945	      1.01195222	      0.24932536	     -0.17488945	      0.83337242	      0.20257550	     -0.14667869	      0.77384582	      0.12465177	     -0.11141884	      0.71431922	      1.55823445	     -0.81368119	      5.29710558	      0.00000000	      0.00000000	     21.32455311	     -8.12407354	    -20.30198927	   -175.02010084	    -30.09992237	   -249.32274512	     41.24965609	     59.78885018	    -10.02743147	     -3.97740662	    151.07214548	    -17.18561199	     45.94437742	     47.54867182	     87.09015211	     -8.09471059	      1.26414697
      2.68333333	      1.34343829	     -1.35014748	     96.54332927	      0.01974213	      0.87202696	      0.71558569	      6.31742062	     -0.96643192	     -0.58372693	     17.06247351	      0.29779634	     34.49168749	     -4.14565596	      0.00000000	      1.30812211	      0.77694108	     -2.71428125	      6.36449566	      0.11108140	     33.44461781	      6.03413815	      0.00000000	      0.22661979	     -0.09686183	      0.75399017	      0.42085561	     -0.12882624	      0.80111456	      0.37231365	     -0.23550986	      0.80111456	      0.25900375	     -0.23550986	      0.65974140	      0.21043913	     -0.19752065	      0.61261701	      0.12949055	     -0.15003898	      0.56549263	      1.61872247	     -1.09572043	      4.19346713	      0.00000000	      0.00000000	     22.11998297	     -6.68980057	    -17.33565138	   -174.74800988	    -28.41451033	   -240.97265414	     34.19879197	     51.38142892	    -16.63213793	     -4.21679476	    153.46255845	    -17.49478433	     50.40758534	     40.59623362	     86.70983714	    -14.33444233	     -0.39290396
      2.70000000	      1.05868640	     -1.70051660	     96.79381469	      0.02075505	      0.87283818	      0.71561343	      6.55583104	     -1.22744981	     -0.71874175	     16.88757667	      0.29474382	     34.29322597	     -4.32712070	      0.00000000	      1.68676581	      1.02716728	     -2.86712136	      6.42526454	      0.11214202	     33.15556554	      6.39466427	      0.00000000	      0.22944954	     -0.13489050	      0.55125786	      0.42611074	     -0.17940436	      0.58571148	      0.37696265	     -0.32797275	      0.58571148	      0.26223788	     -0.32797275	      0.48235063	      0.21306684	     -0.27506870	      0.44789701	      0.13110747	     -0.20894538	      0.41344340	      1.63893511	     -1.52590828	      3.06593085	      0.00000000	      0.00000000	     22.59663531	     -4.94452165	    -13.89998269	   -175.39064620	    -28.05337273	   -238.25746009	     28.10423475	     50.20024830	    -19.88529124	     -1.51837928	    155.17350976	    -17.94216517	     52.41132411	     34.67600967	     87.62218407	    -20.05982280	     -1.43286572
      2.71666667	      0.79821405	     -1.98300795	     96.77979917	      0.02185046	      0.87319380	      0.71557781	      6.79504759	     -1.43634138	     -0.47489674	     16.82647053	      0.29367731	     34.24928878	     -4.55685371	      0.00000000	      2.01321137	      1.18457017	     -4.31603242	      6.57118066	      0.11468874	     33.16599039	      8.20454277	      0.00000000	      0.21856438	     -0.17336974	      0.47955247	      0.40589590	     -0.23058175	      0.50952450	      0.35907941	     -0.42153119	      0.50952450	      0.24979722	     -0.42153119	      0.41960841	      0.20295888	     -0.35353557	      0.38963638	      0.12488768	     -0.26854973	      0.35966435	      1.56118348	     -1.96119317	      2.66712696	      0.00000000	      0.00000000	     22.60171054	     -3.74272693	    -12.37665036	   -173.51818601	    -26.19028009	   -217.12969148	     22.50171600	     28.69588778	    -22.90677182	     -3.48102830	    156.91862899	    -18.47526840	     54.86501679	     29.49655264	     87.26571374	    -26.80250019	     -2.33404235
